<?xml version="1.0" encoding="utf-8"?>
<!-- Generator: Adobe Illustrator 22.1.0, SVG Export Plug-In . SVG Version: 6.00 Build 0)  -->
<svg version="1.1" id="Layer_1" xmlns="http://www.w3.org/2000/svg" xmlns:xlink="http://www.w3.org/1999/xlink" x="0px" y="0px"
	 viewBox="0 0 1000 1000" style="enable-background:new 0 0 1000 1000;" xml:space="preserve">
<style type="text/css">
	.st0{fill:#1259A5;}
	.st1{fill:#34B44A;}
</style>
<g>
	<g>
		<path class="st0" d="M314.5,499.6h11.2v21.5c-2.9,2.2-6.2,3.8-10,5s-7.6,1.7-11.4,1.7c-5.5,0-10.4-1.2-14.8-3.5s-7.8-5.6-10.3-9.8
			s-3.7-8.9-3.7-14.1s1.2-9.9,3.7-14.1s6-7.4,10.4-9.8c4.4-2.3,9.4-3.5,15-3.5c4.6,0,8.8,0.8,12.6,2.3c3.8,1.6,7,3.8,9.5,6.8
			l-7.9,7.3c-3.8-4-8.3-6-13.7-6c-3.4,0-6.4,0.7-9,2.1s-4.7,3.4-6.1,6c-1.5,2.6-2.2,5.5-2.2,8.8s0.7,6.2,2.2,8.8
			c1.5,2.6,3.5,4.6,6.1,6s5.6,2.2,8.9,2.2c3.5,0,6.7-0.8,9.5-2.3L314.5,499.6L314.5,499.6z"/>
		<path class="st0" d="M387,515.6h-24.6l-4.7,11.3h-12.5l23.6-52.9h12.1l23.7,52.9h-12.9L387,515.6z M383.2,506.3l-8.4-20.3
			l-8.4,20.3H383.2z"/>
		<path class="st0" d="M430.5,526.1c-3.9-1.1-7-2.6-9.4-4.4l4.2-9.2c2.3,1.7,5,3,8.1,4s6.2,1.5,9.4,1.5c3.5,0,6-0.5,7.7-1.6
			c1.7-1,2.5-2.4,2.5-4.1c0-1.3-0.5-2.3-1.5-3.1c-1-0.8-2.2-1.5-3.8-2c-1.5-0.5-3.6-1.1-6.2-1.7c-4-1-7.3-1.9-9.9-2.9
			s-4.8-2.5-6.6-4.6c-1.8-2.1-2.8-4.9-2.8-8.5c0-3.1,0.8-5.9,2.5-8.4s4.2-4.5,7.5-5.9c3.4-1.5,7.4-2.2,12.3-2.2
			c3.4,0,6.7,0.4,9.9,1.2c3.2,0.8,6,2,8.5,3.5l-3.8,9.3c-4.9-2.8-9.8-4.2-14.7-4.2c-3.4,0-6,0.6-7.6,1.7s-2.5,2.6-2.5,4.4
			s0.9,3.2,2.8,4c1.9,0.9,4.8,1.8,8.7,2.6c4,1,7.3,1.9,9.9,2.9s4.8,2.5,6.6,4.5c1.8,2.1,2.8,4.9,2.8,8.4c0,3-0.8,5.8-2.5,8.3
			s-4.2,4.5-7.6,5.9c-3.4,1.5-7.5,2.2-12.3,2.2C438.4,527.8,434.4,527.3,430.5,526.1z"/>
		<path class="st0" d="M499.2,524.3c-4.4-2.3-7.8-5.6-10.3-9.8s-3.7-8.9-3.7-14.1s1.2-9.9,3.7-14.1s5.9-7.4,10.3-9.8
			c4.4-2.3,9.3-3.5,14.7-3.5c4.6,0,8.7,0.8,12.4,2.4s6.8,3.9,9.3,7l-7.9,7.3c-3.6-4.1-8-6.2-13.3-6.2c-3.3,0-6.2,0.7-8.8,2.2
			c-2.6,1.4-4.6,3.4-6,6s-2.2,5.5-2.2,8.8s0.7,6.2,2.2,8.8c1.4,2.6,3.4,4.6,6,6c2.6,1.4,5.5,2.2,8.8,2.2c5.3,0,9.7-2.1,13.3-6.3
			l7.9,7.3c-2.5,3.1-5.6,5.4-9.4,7c-3.7,1.6-7.9,2.4-12.5,2.4C508.5,527.8,503.6,526.7,499.2,524.3z"/>
		<path class="st0" d="M607.6,474v52.9h-12.2v-21.7h-24v21.7h-12.2V474h12.2v20.9h24V474H607.6z"/>
		<path class="st0" d="M676.3,517.1v9.8h-41V474h40v9.8h-27.8v11.5H672v9.5h-24.6V517L676.3,517.1L676.3,517.1z"/>
		<path class="st0" d="M711.7,524.3c-4.4-2.3-7.8-5.6-10.3-9.8s-3.7-8.9-3.7-14.1s1.2-9.9,3.7-14.1s5.9-7.4,10.3-9.8
			c4.4-2.3,9.3-3.5,14.7-3.5c4.6,0,8.7,0.8,12.4,2.4s6.8,3.9,9.3,7l-7.9,7.3c-3.6-4.1-8-6.2-13.3-6.2c-3.3,0-6.2,0.7-8.8,2.2
			s-4.6,3.4-6,6s-2.2,5.5-2.2,8.8s0.7,6.2,2.2,8.8c1.4,2.6,3.4,4.6,6,6c2.6,1.4,5.5,2.2,8.8,2.2c5.3,0,9.7-2.1,13.3-6.3l7.9,7.3
			c-2.5,3.1-5.6,5.4-9.4,7c-3.7,1.6-7.9,2.4-12.5,2.4C720.9,527.8,716,526.7,711.7,524.3z"/>
		<path class="st0" d="M790.8,506.1l-7.1,7.4v13.4h-12.2V474h12.2v24.7l23.4-24.7h13.6l-21.9,23.6l23.2,29.3h-14.3L790.8,506.1z"/>
	</g>
	<path class="st1" d="M167.8,496.2c-2.4,2.4-2.3,6.3,0.1,8.6s6.3,2.3,8.6-0.1c0.1-0.1,0.1-0.1,0.2-0.2c2.3-2.4,2.2-6.1-0.2-8.4
		c0,0,0,0-0.1-0.1C174,493.8,170.2,493.8,167.8,496.2z"/>
	<g>
		<path class="st1" d="M172.2,419.6c-44.7,0-81,36.2-81,81c0,44.7,36.2,81,81,81c44.7,0,81-36.2,81-81S216.9,419.6,172.2,419.6z
			 M179.4,486.3l20.8-20.8l6.9,6.9l-20.8,20.8c3.2,6.2,2,13.7-2.8,18.6c-6.4,6.1-16.4,6.1-22.8,0c-6.2-6.3-6.2-16.4,0-22.8
			C165.8,484.3,173.3,483.2,179.4,486.3z M172.2,550c-27.3,0-49.5-22.2-49.5-49.5s22.2-49.5,49.5-49.5v9.9
			c-20,0-36.8,14.8-39.3,34.6c-2.7,21.7,12.6,41.5,34.3,44.2s41.5-12.6,44.2-34.3h-7.1v-9.9h12.4c0.1,0,0.2,0,0.3,0
			c2.6,0.1,4.7,2.3,4.6,4.9C221.7,527.9,199.5,550,172.2,550z"/>
		<path class="st1" d="M172.2,421.2c-43.7,0-79.3,35.6-79.3,79.3s35.6,79.3,79.3,79.3s79.3-35.6,79.3-79.3S215.9,421.2,172.2,421.2z
			 M172.2,551.7c-28.2,0-51.1-22.9-51.1-51.1c0-28.2,22.9-51.1,51.1-51.1h1.6v13.2h-1.7l0,0c-19.1,0-35.3,14.3-37.6,33.2
			c-2.6,20.8,12.1,39.8,32.9,42.4c20.1,2.5,38.6-11.3,42.1-31h-6.8v-13.2h14c0.1,0,0.2,0,0.4,0c1.7,0.1,3.3,0.8,4.5,2
			c1.2,1.3,1.8,2.9,1.7,4.6C223.3,528.7,200.4,551.7,172.2,551.7z M172.2,518.1c-4.5,0-9-1.7-12.5-5c-6.9-7.1-6.9-18.1,0-25.1
			c5.2-5.1,12.9-6.5,19.5-3.6l21.1-21.1l9.3,9.3l-21.1,21.1c2.8,6.6,1.4,14.3-3.6,19.4C181.2,516.4,176.7,518.1,172.2,518.1z"/>
	</g>
	<polygon class="st1" points="836.1,498 859.4,526.9 908.6,474 895,474 860.6,510.4 844,489.6 	"/>
</g>
</svg>
